<svg xmlns="http://www.w3.org/2000/svg" viewBox="0 0 1000 1000"><defs><style>.cls-1{fill:#fcfcfc;}.cls-2{fill:#efefef;}.cls-3{fill:#7d0b12;}</style></defs><title>日历</title><g id="图层_2" data-name="图层 2"><g id="图层_1-2" data-name="图层 1"><path class="cls-1" d="M50,0H950a50,50,0,0,1,50,50V500a0,0,0,0,1,0,0H0a0,0,0,0,1,0,0V50A50,50,0,0,1,50,0Z"/><path class="cls-2" d="M50,500H950a50,50,0,0,1,50,50v450a0,0,0,0,1,0,0H0a0,0,0,0,1,0,0V550a50,50,0,0,1,50-50Z" transform="translate(1000 1500) rotate(-180)"/><rect class="cls-3" y="442.22" width="50" height="100"/><rect class="cls-3" x="950" y="450" width="50" height="100"/><path d="M508.7,453.17q35.22,0,62.82,28,28,27.58,28,65.79,0,39-29.71,68.33-30.14,28.88-69.61,28.86-42,0-70.88-28.86T400.47,547q0-35.24,28.43-80.22l84.47-126.49,31.41,21.65-71.73,99.32.85.85Q487,453.17,508.7,453.17ZM439.94,547.4q0,25.05,17.4,42.44,17.4,17,42.87,17t42.45-17q17.4-17.4,17.4-42.44,0-24.61-17.83-42a57.26,57.26,0,0,0-42-17.4q-24.19,0-42.44,17.4Q439.94,522.8,439.94,547.4Z"/><path d="M386.09,875.91a19.43,19.43,0,0,1-7.2,15.76,27.55,27.55,0,0,1-17.74,5.84,26.22,26.22,0,0,1-16.39-5.43A27.69,27.69,0,0,1,335,877.26l9.18-3.75a24.1,24.1,0,0,0,2.61,6,19.56,19.56,0,0,0,3.92,4.64,17.54,17.54,0,0,0,4.95,3,15.23,15.23,0,0,0,5.74,1.1q6.58,0,10.75-3.4a11,11,0,0,0,4.18-9,10.8,10.8,0,0,0-3.45-8q-3.22-3.23-12.1-6.26-9-3.24-11.17-4.38-11.9-6.06-11.9-17.85a18.22,18.22,0,0,1,6.58-14.09,24,24,0,0,1,16.38-5.84,25.18,25.18,0,0,1,14.82,4.38,20.49,20.49,0,0,1,8.35,10.75l-9,3.76a13.26,13.26,0,0,0-5-6.94,16,16,0,0,0-18.53.36,9.14,9.14,0,0,0-3.86,7.62,8.84,8.84,0,0,0,3,6.68q3.35,2.82,14.51,6.68,11.37,3.85,16.23,9.44A20.23,20.23,0,0,1,386.09,875.91Z"/><path d="M439.31,895.84h-9.18v-7.1h-.42A17,17,0,0,1,423,895a19.31,19.31,0,0,1-9.44,2.5q-9.41,0-14.46-5.37T394,876.85V844.7h9.6v31.52q.31,12.53,12.63,12.52a12,12,0,0,0,9.6-4.64A16.86,16.86,0,0,0,429.71,873V844.7h9.6Z"/><path d="M451,844.7h9.18v7.1h.42a17.07,17.07,0,0,1,6.73-6.26,19.33,19.33,0,0,1,9.45-2.51q9.39,0,14.45,5.38t5.06,15.29v32.14h-9.6V864.32q-.31-12.52-12.62-12.52a12,12,0,0,0-9.61,4.64,16.86,16.86,0,0,0-3.86,11.12v28.28H451Z"/><path d="M529,897.51q-10,0-17.22-7.93a29.81,29.81,0,0,1,0-38.62Q518.94,843,529,843a22.06,22.06,0,0,1,10.28,2.4,18.07,18.07,0,0,1,7.15,6.37h.42l-.42-7.1V821.12H556v74.72h-9.18v-7.1h-.42a18,18,0,0,1-7.15,6.37A22.06,22.06,0,0,1,529,897.51Zm1.57-8.77a14.69,14.69,0,0,0,11.58-5.11q4.7-5.11,4.7-13.36a19.06,19.06,0,0,0-4.7-13.25,14.76,14.76,0,0,0-11.58-5.22A15,15,0,0,0,518.94,857a19.06,19.06,0,0,0-4.7,13.25q0,8.15,4.7,13.26A15,15,0,0,0,530.53,888.74Z"/><path d="M586.57,843q10.65,0,16.8,5.69t6.16,15.6v31.52h-9.19v-7.1h-.41q-6,8.78-15.87,8.77a20.62,20.62,0,0,1-14.14-5A16,16,0,0,1,564.23,880a15.19,15.19,0,0,1,6-12.63q6-4.7,16-4.7,8.55,0,14.08,3.13v-2.19a10.92,10.92,0,0,0-4-8.5,13.62,13.62,0,0,0-9.29-3.5,14.71,14.71,0,0,0-12.73,6.78l-8.46-5.32Q572.91,843,586.57,843Zm-12.42,37.16a7.67,7.67,0,0,0,3.18,6.26,11.7,11.7,0,0,0,7.46,2.5,15.29,15.29,0,0,0,10.81-4.49,14.05,14.05,0,0,0,4.74-10.54q-4.49-3.54-12.52-3.54a16.26,16.26,0,0,0-9.76,2.81A8.37,8.37,0,0,0,574.15,880.19Z"/><path d="M665.05,844.7l-32,73.68H623.1L635,892.61,613.91,844.7h10.44l15.24,36.74h.2l14.82-36.74Z"/></g></g></svg>