<svg xmlns="http://www.w3.org/2000/svg" viewBox="0 0 1010 1010"><defs><style>.cls-1{fill:#f8c332;}.cls-2{fill:#641913;}.cls-3{fill:#ffe553;}.cls-4{fill:#ddd4a4;}</style></defs><title>发现</title><g id="图层_2" data-name="图层 2"><g id="图层_1-2" data-name="图层 1"><circle class="cls-1" cx="505" cy="505" r="500"/><path class="cls-2" d="M505,1010A505.13,505.13,0,0,1,308.43,39.69a505,505,0,0,1,553.66,822.4A503.47,503.47,0,0,1,505,1010ZM505,10C232.06,10,10,232.06,10,505s222.06,495,495,495,495-222.06,495-495S777.94,10,505,10Z"/><path class="cls-3" d="M944.65,266.67A497.76,497.76,0,0,1,1005,505c0,276.14-223.86,500-500,500a497.73,497.73,0,0,1-238-60.17l-.43-.13a497.76,497.76,0,0,1-60.35-238.33c0-276.14,223.86-500,500-500a497.73,497.73,0,0,1,238,60.17"/><path class="cls-2" d="M505,1010a505.63,505.63,0,0,1-239.94-60.54l-1.91-.59-1-1.78A505.16,505.16,0,0,1,946.6,262.14l-2.67,4.92,5.12-2.78A504.86,504.86,0,0,1,505,1010ZM270.18,940.87A495.7,495.7,0,0,0,505,1000c272.94,0,495-222.06,495-495a495.68,495.68,0,0,0-59-234.5,495.7,495.7,0,0,0-234.82-59.13c-272.94,0-495,222.06-495,495A495.8,495.8,0,0,0,270.18,940.87Z"/><circle class="cls-4" cx="343.64" cy="362.09" r="88.64"/><path class="cls-2" d="M343.64,455.73a93.64,93.64,0,1,1,93.63-93.64A93.74,93.74,0,0,1,343.64,455.73Zm0-177.28a83.64,83.64,0,1,0,83.63,83.64A83.73,83.73,0,0,0,343.64,278.45Z"/><circle class="cls-3" cx="648.54" cy="206.37" r="54.06"/><path class="cls-2" d="M648.54,265.43a59.06,59.06,0,1,1,59.06-59.06A59.13,59.13,0,0,1,648.54,265.43Zm0-108.12a49.06,49.06,0,1,0,49.06,49.06A49.12,49.12,0,0,0,648.54,157.31Z"/><circle class="cls-3" cx="206.22" cy="740.08" r="54.06"/><path class="cls-2" d="M206.22,799.14a59.06,59.06,0,1,1,59.06-59.06A59.13,59.13,0,0,1,206.22,799.14Zm0-108.12a49.06,49.06,0,1,0,49.06,49.06A49.12,49.12,0,0,0,206.22,691Z"/><ellipse class="cls-3" cx="102.4" cy="427.8" rx="54.06" ry="33.05" transform="translate(-335.77 466.67) rotate(-81.61)"/><path class="cls-2" d="M97.59,486.51a25.71,25.71,0,0,1-3.81-.28c-21.11-3.11-33.86-31.22-29-64s25.16-56,46.27-52.87,33.86,31.22,29,64C135.51,464.15,117.28,486.51,97.59,486.51Zm9.7-107.4c-14.35,0-29,19.61-32.64,44.6C70.77,450,80.2,474.12,95.24,476.34a15.65,15.65,0,0,0,2.27.16c14.35,0,29-19.61,32.64-44.6,3.89-26.31-5.55-50.41-20.59-52.63A15.65,15.65,0,0,0,107.29,379.11Z"/><ellipse class="cls-3" cx="471.63" cy="86.53" rx="39.93" ry="24.42" transform="translate(-7.59 102.84) rotate(-12.35)"/><path class="cls-2" d="M463.28,116.89c-18.21,0-32.73-7.94-35.54-20.76-1.78-8.13,1.47-16.67,9.16-24,7-6.75,17.14-11.82,28.44-14.3S488,55.71,497.16,58.9c10.06,3.48,16.58,9.88,18.37,18s-1.48,16.68-9.16,24c-7,6.74-17.14,11.82-28.45,14.29A68.11,68.11,0,0,1,463.28,116.89Zm16.63-50.71a58.65,58.65,0,0,0-12.43,1.38c-9.53,2.09-17.93,6.26-23.66,11.75-2.94,2.82-7.67,8.47-6.31,14.69,2.25,10.28,19.78,15.54,38.27,11.49,9.54-2.08,17.94-6.25,23.67-11.74,2.94-2.82,7.67-8.48,6.31-14.69s-8-9.38-11.87-10.71A42.88,42.88,0,0,0,479.91,66.18Z"/><circle class="cls-1" cx="544.45" cy="812.27" r="49.64"/><path class="cls-2" d="M544.45,866.91a54.64,54.64,0,1,1,54.64-54.64A54.7,54.7,0,0,1,544.45,866.91Zm0-99.27a44.64,44.64,0,1,0,44.64,44.63A44.68,44.68,0,0,0,544.45,767.64Z"/></g></g></svg>