<svg xmlns="http://www.w3.org/2000/svg" xmlns:xlink="http://www.w3.org/1999/xlink" viewBox="0 0 1001.11 1000"><defs><style>.cls-1{fill:none;}.cls-2{fill:#0188fb;}.cls-3{clip-path:url(#clip-path);}.cls-4{fill:#73c3ff;}.cls-5{fill:#fff;}</style><clipPath id="clip-path"><rect class="cls-1" width="1000" height="600" rx="50" ry="50"/></clipPath></defs><title>mail</title><g id="图层_2" data-name="图层 2"><g id="图层_1-2" data-name="图层 1"><rect class="cls-2" x="1.11" width="1000" height="1000" rx="50" ry="50"/><g class="cls-3"><polygon class="cls-4" points="500 278.73 0 0 1000 0 500 278.73"/></g><path class="cls-5" d="M585.57,571.8q0,21.33-8.89,33.78T552.23,618q-16.66,0-24.89-16.23Q516.45,618,496.22,618q-18.66,0-30.89-12.89T453.1,572.69q0-19.35,12.23-32.23,12.44-13.11,30-13.12,17.12,0,28.45,13.12h.89v-10h16V585.8q0,17.78,13.12,17.78,15.78,0,15.78-31.78,0-28.89-20.45-49.35T499.33,502q-29.34,0-49.78,20.44T429.1,571.8q0,29.12,20.45,49.56,20.22,20.24,49.78,20.23,16,0,28.23-6.23l6.22,15.12a83.84,83.84,0,0,1-34.45,7.11,88.46,88.46,0,0,1-44-11.34,85.35,85.35,0,0,1-31.57-31.34,89.06,89.06,0,0,1-8.66-21.11,86.15,86.15,0,0,1-2.89-22.23A87.07,87.07,0,0,1,415,549.68a82.73,82.73,0,0,1,8.55-20.78,84.29,84.29,0,0,1,13.89-18,81.28,81.28,0,0,1,18-13.45,94.27,94.27,0,0,1,21-8.45,87.45,87.45,0,0,1,22.89-3,85.62,85.62,0,0,1,43.34,11.34A81.5,81.5,0,0,1,574,528.68,83.92,83.92,0,0,1,585.57,571.8Zm-114.69.89a31.82,31.82,0,0,0,2,11.44A27,27,0,0,0,508.45,599a27.07,27.07,0,0,0,8.55-5.78,24.83,24.83,0,0,0,5.67-8.89,34.7,34.7,0,0,0,0-23.22,24.69,24.69,0,0,0-5.67-9,27.24,27.24,0,0,0-8.55-5.78,26.52,26.52,0,0,0-35.57,14.89A31.84,31.84,0,0,0,470.88,572.69Z"/></g></g></svg>