<svg xmlns="http://www.w3.org/2000/svg" viewBox="0 0 805.22 805.22">
    <defs>
        <style>.cls-1{fill:#ff6445;}.cls-2{fill:#fff;}</style>
    </defs>
    <title>mi_fit</title>
    <g id="图层_2" data-name="图层 2">
        <g id="图层_1-2" data-name="图层 1">
            <circle class="cls-1" cx="402.61" cy="402.61" r="402.11"/>
            <path class="cls-2" d="M402.61,805.22A402.71,402.71,0,0,1,245.9,31.64,402.71,402.71,0,0,1,559.33,773.58,400,400,0,0,1,402.61,805.22ZM402.61,1C181.16,1,1,181.16,1,402.61S181.16,804.22,402.61,804.22,804.22,624.06,804.22,402.61,624.06,1,402.61,1Z"/>
            <circle class="cls-2" cx="402.61" cy="402.61" r="378.46"/>
            <path class="cls-2" d="M402.61,781.57A379.07,379.07,0,0,1,255.1,53.43a379.06,379.06,0,0,1,295,698.36A376.61,376.61,0,0,1,402.61,781.57Zm0-756.92c-208.41,0-378,169.55-378,378s169.55,378,378,378,378-169.55,378-378S611,24.65,402.61,24.65Z"/>
            <rect class="cls-1" x="100.75" y="-27.66" width="94.61" height="354.25" rx="47.31" ry="47.31" transform="translate(149.05 -60.92) rotate(45)"/>
            <path class="cls-2" d="M56.27,289a47.81,47.81,0,0,1-33.81-81.56L206.05,23.86a47.81,47.81,0,0,1,67.61,67.61L90.07,275.06A47.48,47.48,0,0,1,56.27,289ZM239.85,10.88a46.63,46.63,0,0,0-33.09,13.69L23.17,208.16a46.8,46.8,0,0,0,66.19,66.19L273,90.77a46.79,46.79,0,0,0-33.1-79.89Z"/>
            <path class="cls-1" d="M451.64,474.69V371.39c0-23.47-18.57-42.51-41.47-42.51H293.61a1.65,1.65,0,0,0-1.63,1.66V474.69a1.64,1.64,0,0,0,1.63,1.65h31.13a1.64,1.64,0,0,0,1.63-1.66h0V361.54a1.64,1.64,0,0,1,1.62-1.66h67c12.57,0,22.77,10.44,22.77,23.32v91.48a1.63,1.63,0,0,0,1.62,1.65H450a1.63,1.63,0,0,0,1.62-1.65Zm-62.88,0a1.63,1.63,0,0,1-1.61,1.66H356a1.64,1.64,0,0,1-1.63-1.66h0V388a1.64,1.64,0,0,1,1.63-1.66h31.13a1.63,1.63,0,0,1,1.61,1.66v86.7h0m124.48,0a1.64,1.64,0,0,1-1.62,1.66H480.5a1.65,1.65,0,0,1-1.64-1.66h0V330.55a1.65,1.65,0,0,1,1.64-1.66h31.12a1.63,1.63,0,0,1,1.62,1.66V474.68"/>
            <path class="cls-2" d="M480.5,476.84a2.15,2.15,0,0,1-2.14-2.16V330.55a2.15,2.15,0,0,1,2.14-2.16h31.12a2.14,2.14,0,0,1,2.12,2.16V474.68a2.11,2.11,0,0,1-.61,1.51,2.14,2.14,0,0,1-1.51.65Zm0-147.45a1.15,1.15,0,0,0-1.14,1.16V474.68a1.18,1.18,0,0,0,.33.82,1.17,1.17,0,0,0,.81.34h31.12a1.17,1.17,0,0,0,.8-.35,1.11,1.11,0,0,0,.32-.81V330.55a1.14,1.14,0,0,0-1.12-1.16ZM356,476.84a2.19,2.19,0,0,1-1.52-.64,2.11,2.11,0,0,1-.61-1.52V388a2.14,2.14,0,0,1,2.13-2.16h31.13a2.14,2.14,0,0,1,2.11,2.16v86.69a2.11,2.11,0,0,1-.6,1.52,2.13,2.13,0,0,1-1.5.65Zm0-90a1.14,1.14,0,0,0-1.13,1.16v86.7a1.14,1.14,0,0,0,.33.82,1.19,1.19,0,0,0,.8.34h31.13a1.13,1.13,0,0,0,.79-.35,1.07,1.07,0,0,0,.32-.81h0V388a1.14,1.14,0,0,0-1.11-1.16Zm-62.41,90a2.14,2.14,0,0,1-2.13-2.15V330.54a2.16,2.16,0,0,1,2.12-2.16H410.17c23.14,0,42,19.29,42,43v103.3a2.13,2.13,0,0,1-2.12,2.14H419.34a2.14,2.14,0,0,1-2.12-2.15V383.2c0-12.58-10-22.82-22.27-22.82H328a1.15,1.15,0,0,0-1.12,1.16V474.68a2.11,2.11,0,0,1-.61,1.52,2.19,2.19,0,0,1-1.51.64Zm0-147.46a1.16,1.16,0,0,0-1.13,1.15V474.69a1.15,1.15,0,0,0,1.13,1.15h31.13a1.19,1.19,0,0,0,.8-.34,1.1,1.1,0,0,0,.33-.82V361.54a2.14,2.14,0,0,1,2.12-2.16h67c12.83,0,23.27,10.68,23.27,23.82v91.48a1.14,1.14,0,0,0,1.12,1.15H450a1.13,1.13,0,0,0,1.12-1.15V371.39c0-23.16-18.38-42-41-42Z"/>
        </g>
    </g>
</svg>