<svg xmlns="http://www.w3.org/2000/svg" viewBox="0 0 786.05 813.33">
    <defs>
        <style>.cls-1{fill:#65c8d0;}.cls-2{fill:#29abe2;}.cls-3{fill:#e41014;}.cls-4{fill:#7d0b12;}.cls-5{fill:#fff;}</style>
    </defs>
    <title>nova_launcher</title>
    <g id="图层_2" data-name="图层 2">
        <g id="图层_1-2" data-name="图层 1">
            <rect class="cls-1" x="243.02" y="156.56" width="300" height="464.44" transform="translate(-84.23 667.79) rotate(-75)"/>
            <polygon class="cls-1" points="0 283.47 129.89 473.56 207.54 183.78 0 283.47"/>
            <polygon class="cls-1" points="786.05 494.09 578.51 593.77 656.16 303.99 786.05 494.09"/>
            <rect class="cls-2" x="243.02" y="156.56" width="300" height="464.44" transform="translate(119.22 869.03) rotate(-105)"/>
            <polygon class="cls-2" points="0 494.09 207.54 593.77 129.89 303.99 0 494.09"/>
            <polygon class="cls-2" points="786.05 283.47 656.16 473.56 578.51 183.78 786.05 283.47"/>
            <rect class="cls-3" x="242.91" y="174.67" width="300" height="464"/>
            <polygon class="cls-3" points="393.02 0 243.03 174.67 543.02 174.67 393.02 0"/>
            <polygon class="cls-3" points="393.02 813.33 243.03 638.67 543.02 638.67 393.02 813.33"/>
            <rect class="cls-4" x="293.02" y="288.78" width="200" height="200"/>
            <path class="cls-5" d="M447.56,390.76,395.1,337.61a4.42,4.42,0,0,0-4.15,0l-39.34,40-13.12,13.11c-.69,1.38-.69,2.76,0,3.45a2,2,0,0,0,3.45,0l9-9v44.18a10.62,10.62,0,0,0,10.35,10.36h18.64a3,3,0,0,0,2.76-2.77V412.85h23.47a2.76,2.76,0,0,0,0-5.52H379.91a3,3,0,0,0-2.76,2.76v24.16H361.27a5.44,5.44,0,0,1-5.52-5.52V380.41L393,343.13l50.39,51.08a3.45,3.45,0,0,0,4.14,0c.69-.69.69-2.07,0-3.45Zm-15.19,6.91a3,3,0,0,0-2.76,2.76v29a5.44,5.44,0,0,1-5.52,5.52H406.14a2.77,2.77,0,0,0,0,5.53h18.64a10.63,10.63,0,0,0,10.36-10.36V400.43A3,3,0,0,0,432.37,397.67Z"/>
        </g>
    </g>
</svg>