<svg xmlns="http://www.w3.org/2000/svg" viewBox="0 0 1000 1000"><defs><style>.cls-1{fill:#efefef;}.cls-2{fill:#e41014;}.cls-3{fill:#333;}.cls-4{fill:#d2d2d2;}.cls-5{fill:#4d4d4d;}.cls-6{fill:#fcfcfc;}</style></defs><title>精灵球</title><g id="图层_2" data-name="图层 2"><g id="图层_1-2" data-name="图层 1"><path class="cls-1" d="M1000,500c0,276.14-223.86,500-500,500S0,776.14,0,500Z"/><path class="cls-2" d="M0,500C0,223.86,223.86,0,500,0s500,223.86,500,500Z"/><rect class="cls-3" y="450" width="1000" height="100" rx="30" ry="30"/><circle class="cls-4" cx="500" cy="500" r="197.22"/><path class="cls-5" d="M500,712.22C383,712.22,287.78,617,287.78,500S383,287.78,500,287.78,712.22,383,712.22,500,617,712.22,500,712.22Zm0-394.44c-100.48,0-182.22,81.74-182.22,182.22S399.52,682.22,500,682.22,682.22,600.48,682.22,500,600.48,317.78,500,317.78Z"/><circle class="cls-1" cx="500" cy="500" r="160.5"/><circle class="cls-6" cx="500" cy="500" r="139.39"/></g></g></svg>