<svg xmlns="http://www.w3.org/2000/svg" viewBox="0 0 797.06 870.77"><defs><style>.cls-1{fill:#d2d2d2;}.cls-2{fill:#1aa260;}.cls-3{fill:#68c195;}</style></defs><title>snapseed</title><g id="图层_2" data-name="图层 2"><g id="图层_1-2" data-name="图层 1"><path class="cls-1" d="M318.64,377.44H747.06a50,50,0,0,1,50,50V820.77a50,50,0,0,1-50,50H268.64a0,0,0,0,1,0,0V427.44A50,50,0,0,1,318.64,377.44Z"/><path class="cls-2" d="M268.64,870.77c159.32-80,268.64-244.94,268.64-435.38S428,80,268.64,0Z"/><path class="cls-3" d="M130,198.6V104.14A488.49,488.49,0,0,1,268.64,0V870.77C109.33,790.73,0,625.83,0,435.39A484.75,484.75,0,0,1,61.35,198.6Z"/></g></g></svg>