<svg xmlns="http://www.w3.org/2000/svg" viewBox="0 0 784.98 1609.68">
    <title>ssapi_screenshot</title>
    <g id="图层_2" data-name="图层 2">
        <g id="图层_1-2" data-name="图层 1">
            <path d="M276.58,1534.38H508.41a4.5,4.5,0,0,1,0,9H276.58a4.5,4.5,0,1,1,0-9Zm390.69,75.12c64.34,0,117.71-52.65,117.71-117.35V117.35C785,53,732.33,0,667.63,0H117.35A117.5,117.5,0,0,0,0,117.35v1375c0,64.7,53.37,117.35,117.71,117.35H667.27v-.18ZM494.57,51A14.92,14.92,0,1,1,479.65,66,14.88,14.88,0,0,1,494.57,51Zm-162.1,7.37H440.12c7,0,7.54,5.57,7.54,7v1.25c0,1.62-.36,7-7.54,7H332.47c-7,0-7.55-5.57-7.55-7V65.42C324.92,63.8,325.28,58.41,332.47,58.41Zm216.19,59.3c28.58,0,37.74-17.25,40.08-32.53.36-2.33,0-30.55,0-31.81C590,43.49,600.06,40.08,606,39.18h69a70.87,70.87,0,0,1,70.63,70.62V1499.7A70.87,70.87,0,0,1,675,1570.33H109.8a70.87,70.87,0,0,1-70.62-70.63V109.8A70.87,70.87,0,0,1,109.8,39.18h69c5.93.72,16.18,4.31,17.26,14.19,0,.72-.36,29.48,0,31.81,2.69,15.28,11.86,32.53,40.07,32.53Z"/>
            <path d="M378.06,620.37c12.32-.45,24.66-.08,37-.2H535.32c4.62,0,9.35-.39,13.86.89,5.28,1.49,10.5,3.94,14.13,8.18a29.22,29.22,0,0,1,5.71,8.81,56,56,0,0,1,1.83,17.1q-.06,73.14-.05,146.28c0,5.47.29,11-.47,16.4-.81,6.06-.6,12.26-2.2,18.21-1.16,4.51-1.31,9.22-2.7,13.69-1.59,5-2.81,10.06-4.66,14.95-1.82,6.3-3.55,12.76-7.16,18.32-2.86,4.34-4.64,9.24-7.39,13.65-2.83,4.67-5.65,9.37-8.61,14a106.28,106.28,0,0,1-16,19.84c-4.87,4.74-9.26,10-14.76,14.09-5.87,4.44-11.5,9.21-17.53,13.43-4.55,2.64-9,5.47-13.49,8.15-7.35,3.62-14.53,7.66-22.28,10.36-8.13,3-16.31,6-24.84,7.66a64,64,0,0,1-9.76,2.09c-10.65,1.16-21.21,3.69-32,3.26-8.07.32-16.07-.89-24-2.09-5.43-1-11.05-1-16.35-2.66-3-.93-6.13-1.4-9.16-2.17a224.09,224.09,0,0,1-30.09-11.38c-5-2.71-10.35-4.9-15.1-8.11a203.34,203.34,0,0,1-26.54-19.3c-5.42-5.12-10.69-10.41-16.19-15.45a42.83,42.83,0,0,1-7.05-8.38c-3.51-5.6-8-10.51-11.25-16.26-2.9-5.18-6.93-9.67-9.42-15.09a239.22,239.22,0,0,1-10.36-24.76c-1.7-4-2.25-8.38-3.55-12.52-1.33-4.35-1.69-8.92-2.92-13.3-2.11-7.89-1.54-16.13-2.57-24.17-.58-5-1-10.17-.15-15.21,1.14-6.3.66-12.72,1.39-19.06.12-5.27,2.06-10.22,2.89-15.37,1.81-10.32,5.5-20.17,9.4-29.85,2.76-7.5,7-14.32,10.94-21.24,3.37-5.29,6.22-11,10.21-15.83a179.92,179.92,0,0,1,15.67-18.86c4.93-4.92,9.69-10.06,15.19-14.38,3.55-2.78,7-5.67,10.63-8.39,7.83-6.06,16.69-10.54,25.19-15.56a252.63,252.63,0,0,1,24.46-10c4.64-1.13,9-3.15,13.72-4,4.49-.84,8.78-2.57,13.36-2.88,7.65-.61,15.18-2,22.81-2.77m150.2,60.82c-3.72,3.17-4.9,8.5-9,11.37a43.66,43.66,0,0,1-12.4,5.56c-8.49,1.42-17.12,1-25.68,1.1q-71,0-142.07,0c-7.38-.05-14.49,2.17-21.82,2.75-6,.43-11.59,3.07-16.78,6a42.32,42.32,0,0,0-10.88,8.08,62.9,62.9,0,0,0-9.5,13.52c-4.12,10.4-8,21.19-8.3,32.51-.48,3.81,4.52,6.25,7.59,4.48,3.06-1.3,4.07-4.75,5.49-7.47,2.3-5.2,6.08-10,11.35-12.4,2.6-1.24,5.55-1.16,8.35-1.4,8-.81,16-.28,23.95-.48,2.45.07,5.12-.34,7.32,1,.37,5.55-1.54,10.85-3,16.12-6,26.32-16,51.45-24.55,77-1.67,5.19-3.33,10.38-5.42,15.42-2.09,7.29-5.53,14.09-7.54,21.41-2,7-5.28,13.51-6.84,20.62-.77,3.66-2.84,7.18-2.4,11,1.15,3.29,3.61,6.51,7.16,7.35,6.9,1.78,14.1,1.59,21.17,1.55,5.82-.09,11.73.46,17.44-.93,3.39-.8,7-2.11,8.95-5.23,4.15-7.16,3.34-15.81,6.35-23.35,1.47-4,1.58-8.4,3.08-12.42,1.42-3.85,2.06-7.92,3.4-11.8s1.32-8.32,2.83-12.27a35.9,35.9,0,0,0,2-7.49c.71-5.07,2.94-9.76,3.79-14.8,3.75-15.21,7.53-30.41,11.69-45.52.86-3.94,1.26-8,2.63-11.81,1.79-5,1.71-10.43,3.63-15.38,1-2.77,1.44-5.75,2.66-8.45.9-2,3.46-1.95,5.35-2.06,10.09,0,20.18.07,30.28,0,2.22,0,4.61-.19,6.6,1,.42,6.72-2,13.08-3.83,19.43-.8,5.05-2.78,9.8-3.69,14.83-.71,4.36-2.34,8.51-3,12.88-.6,4.18-2.54,8-3.44,12.12-1,4.56-2.56,8.94-3.34,13.54s-2.26,9.24-3,14c-.72,4.51-2.91,8.62-3.61,13.15-.87,5.57-2.76,10.94-3.54,16.54-.68,4.63-1.18,9.3-2.19,13.89a24.61,24.61,0,0,0,.17,11.32c1.17,4.81,1.06,10,3.32,14.49a35.37,35.37,0,0,0,5.83,8.82c4.55,4.67,10.89,7.05,17.09,8.63,7.08,1.1,14.32,1.69,21.45.67,9.62-1,18.69-4.7,27.21-9.08a113.65,113.65,0,0,0,14.49-12.14c5.53-6.2,11-12.54,15.32-19.68,1.42-2.59,3.19-5.16,3.48-8.17s-3.07-4.79-5.55-5.77c-3.84-1.33-6.9,2.05-9.4,4.44-4.43,4.68-10.35,7.51-16.27,9.82A28.46,28.46,0,0,1,457,880.68c-5-1.11-9.41-5.7-9.24-11-.1-3.55.45-7.07.68-10.59.26-4.54,1.76-8.9,2.11-13.43a65.36,65.36,0,0,1,2-11.54c1.45-5.41,1.63-11.08,3.26-16.46,1.77-5.78,1.5-11.93,3.12-17.75.68-2.61,1.28-5.25,1.75-7.92.85-5.08,2.71-9.93,3.39-15s2.73-9.76,3.5-14.79c.68-4.56,2.44-8.83,3.55-13.28.46-1.33.69-3.19,2.28-3.63,3.95-1.21,8.16-1,12.21-1.77,5.2-.91,10.53-1,15.67-2.18,5.94-1.84,11.81-4.58,16.13-9.17a62.27,62.27,0,0,0,9-12.9,80.27,80.27,0,0,0,7.47-17.82c1.29-4.82,3.35-9.54,3.21-14.63-.07-1.56,0-3.49-1.4-4.51-2-1.63-5.13-3-7.43-1.07Z"/>
        </g>
    </g>
</svg>