<svg xmlns="http://www.w3.org/2000/svg" viewBox="0 0 1000 1000"><defs><style>.cls-1{fill:#fff;}.cls-2{fill:#ff6445;}.cls-3{fill:#ffcdc5;}.cls-4{fill:#0188fb;}.cls-5{fill:#73c3ff;}.cls-6{fill:#1aa260;}.cls-7{fill:#68c195;}.cls-8{fill:gray;}.cls-9{fill:#d2d2d2;}</style></defs><title>todo</title><g id="图层_2" data-name="图层 2"><g id="图层_1-2" data-name="图层 1"><rect class="cls-1" width="1000" height="1000" rx="50" ry="50"/><circle class="cls-2" cx="190.91" cy="247.18" r="60.23"/><circle class="cls-3" cx="190.91" cy="247.18" r="35.56"/><circle class="cls-4" cx="190.91" cy="415.73" r="60.23"/><circle class="cls-5" cx="190.91" cy="415.73" r="35.56"/><circle class="cls-6" cx="190.91" cy="584.27" r="60.23"/><circle class="cls-7" cx="190.91" cy="584.27" r="35.56"/><circle class="cls-8" cx="190.91" cy="752.82" r="60.23"/><circle class="cls-9" cx="190.91" cy="752.82" r="35.56"/><path class="cls-8" d="M869.32,307.91h-1.27v-1h1.27Zm-13.27,0h-12v-1h12Zm-24,0h-12v-1h12Zm-24,0h-12v-1h12Zm-24,0h-12v-1h12Zm-24,0h-12v-1h12Zm-24,0h-12v-1h12Zm-24,0h-12v-1h12Zm-24,0h-12v-1h12Zm-24,0h-12v-1h12Zm-24,0H628v-1h12Zm-24,0H604v-1h12Zm-24,0H580v-1h12Zm-24,0H556v-1h12Zm-24,0H532v-1h12Zm-24,0H508v-1h12Zm-24,0h-12v-1h12Zm-24,0h-12v-1h12Zm-24,0h-12v-1h12Zm-24,0h-12v-1h12Zm-24,0h-12v-1h12Zm-24,0h-12v-1h12Zm-24,0h-12v-1h12Zm-24,0h-12v-1h12Zm-24,0h-12v-1h12Z"/><path class="cls-8" d="M869.32,476.45h-1.27v-1h1.27Zm-13.27,0h-12v-1h12Zm-24,0h-12v-1h12Zm-24,0h-12v-1h12Zm-24,0h-12v-1h12Zm-24,0h-12v-1h12Zm-24,0h-12v-1h12Zm-24,0h-12v-1h12Zm-24,0h-12v-1h12Zm-24,0h-12v-1h12Zm-24,0H628v-1h12Zm-24,0H604v-1h12Zm-24,0H580v-1h12Zm-24,0H556v-1h12Zm-24,0H532v-1h12Zm-24,0H508v-1h12Zm-24,0h-12v-1h12Zm-24,0h-12v-1h12Zm-24,0h-12v-1h12Zm-24,0h-12v-1h12Zm-24,0h-12v-1h12Zm-24,0h-12v-1h12Zm-24,0h-12v-1h12Zm-24,0h-12v-1h12Zm-24,0h-12v-1h12Z"/><path class="cls-8" d="M869.32,645h-1.27v-1h1.27Zm-13.27,0h-12v-1h12Zm-24,0h-12v-1h12Zm-24,0h-12v-1h12Zm-24,0h-12v-1h12Zm-24,0h-12v-1h12Zm-24,0h-12v-1h12Zm-24,0h-12v-1h12Zm-24,0h-12v-1h12Zm-24,0h-12v-1h12Zm-24,0H628v-1h12Zm-24,0H604v-1h12Zm-24,0H580v-1h12Zm-24,0H556v-1h12Zm-24,0H532v-1h12Zm-24,0H508v-1h12Zm-24,0h-12v-1h12Zm-24,0h-12v-1h12Zm-24,0h-12v-1h12Zm-24,0h-12v-1h12Zm-24,0h-12v-1h12Zm-24,0h-12v-1h12Zm-24,0h-12v-1h12Zm-24,0h-12v-1h12Zm-24,0h-12v-1h12Z"/><path class="cls-8" d="M869.32,813.55h-1.27v-1h1.27Zm-13.27,0h-12v-1h12Zm-24,0h-12v-1h12Zm-24,0h-12v-1h12Zm-24,0h-12v-1h12Zm-24,0h-12v-1h12Zm-24,0h-12v-1h12Zm-24,0h-12v-1h12Zm-24,0h-12v-1h12Zm-24,0h-12v-1h12Zm-24,0H628v-1h12Zm-24,0H604v-1h12Zm-24,0H580v-1h12Zm-24,0H556v-1h12Zm-24,0H532v-1h12Zm-24,0H508v-1h12Zm-24,0h-12v-1h12Zm-24,0h-12v-1h12Zm-24,0h-12v-1h12Zm-24,0h-12v-1h12Zm-24,0h-12v-1h12Zm-24,0h-12v-1h12Zm-24,0h-12v-1h12Zm-24,0h-12v-1h12Zm-24,0h-12v-1h12Z"/><path class="cls-8" d="M869.32,187.45h-1.27v-1h1.27Zm-13.27,0h-12v-1h12Zm-24,0h-12v-1h12Zm-24,0h-12v-1h12Zm-24,0h-12v-1h12Zm-24,0h-12v-1h12Zm-24,0h-12v-1h12Zm-24,0h-12v-1h12Zm-24,0h-12v-1h12Zm-24,0h-12v-1h12Zm-24,0H628v-1h12Zm-24,0H604v-1h12Zm-24,0H580v-1h12Zm-24,0H556v-1h12Zm-24,0H532v-1h12Zm-24,0H508v-1h12Zm-24,0h-12v-1h12Zm-24,0h-12v-1h12Zm-24,0h-12v-1h12Zm-24,0h-12v-1h12Zm-24,0h-12v-1h12Zm-24,0h-12v-1h12Zm-24,0h-12v-1h12Zm-24,0h-12v-1h12Zm-24,0h-12v-1h12Z"/><path class="cls-8" d="M869.32,356h-1.27v-1h1.27Zm-13.27,0h-12v-1h12Zm-24,0h-12v-1h12Zm-24,0h-12v-1h12Zm-24,0h-12v-1h12Zm-24,0h-12v-1h12Zm-24,0h-12v-1h12Zm-24,0h-12v-1h12Zm-24,0h-12v-1h12Zm-24,0h-12v-1h12Zm-24,0H628v-1h12Zm-24,0H604v-1h12Zm-24,0H580v-1h12Zm-24,0H556v-1h12Zm-24,0H532v-1h12Zm-24,0H508v-1h12Zm-24,0h-12v-1h12Zm-24,0h-12v-1h12Zm-24,0h-12v-1h12Zm-24,0h-12v-1h12Zm-24,0h-12v-1h12Zm-24,0h-12v-1h12Zm-24,0h-12v-1h12Zm-24,0h-12v-1h12Zm-24,0h-12v-1h12Z"/><path class="cls-8" d="M869.32,535.82h-1.27v-1h1.27Zm-13.27,0h-12v-1h12Zm-24,0h-12v-1h12Zm-24,0h-12v-1h12Zm-24,0h-12v-1h12Zm-24,0h-12v-1h12Zm-24,0h-12v-1h12Zm-24,0h-12v-1h12Zm-24,0h-12v-1h12Zm-24,0h-12v-1h12Zm-24,0H628v-1h12Zm-24,0H604v-1h12Zm-24,0H580v-1h12Zm-24,0H556v-1h12Zm-24,0H532v-1h12Zm-24,0H508v-1h12Zm-24,0h-12v-1h12Zm-24,0h-12v-1h12Zm-24,0h-12v-1h12Zm-24,0h-12v-1h12Zm-24,0h-12v-1h12Zm-24,0h-12v-1h12Zm-24,0h-12v-1h12Zm-24,0h-12v-1h12Zm-24,0h-12v-1h12Z"/><path class="cls-8" d="M869.32,693.09h-1.27v-1h1.27Zm-13.27,0h-12v-1h12Zm-24,0h-12v-1h12Zm-24,0h-12v-1h12Zm-24,0h-12v-1h12Zm-24,0h-12v-1h12Zm-24,0h-12v-1h12Zm-24,0h-12v-1h12Zm-24,0h-12v-1h12Zm-24,0h-12v-1h12Zm-24,0H628v-1h12Zm-24,0H604v-1h12Zm-24,0H580v-1h12Zm-24,0H556v-1h12Zm-24,0H532v-1h12Zm-24,0H508v-1h12Zm-24,0h-12v-1h12Zm-24,0h-12v-1h12Zm-24,0h-12v-1h12Zm-24,0h-12v-1h12Zm-24,0h-12v-1h12Zm-24,0h-12v-1h12Zm-24,0h-12v-1h12Zm-24,0h-12v-1h12Zm-24,0h-12v-1h12Z"/></g></g></svg>